<svg width="1280" height="420" viewBox="0 0 1280 420" fill="none" xmlns="http://www.w3.org/2000/svg" role="img" aria-label="Sales Note Lint project cover">
  <rect width="1280" height="420" rx="30" fill="#171717"/>
  <path d="M0 332C168 286 293 306 420 336C560 369 699 376 853 325C1018 270 1148 277 1280 320V420H0V332Z" fill="#525252" opacity=".16"/>
  <path d="M86 84h560" stroke="#525252" stroke-width="10" stroke-linecap="round"/>
  <text x="86" y="176" fill="#fafafa" font-family="Space Grotesk, ui-sans-serif, system-ui" font-size="62" font-weight="800">Sales Note Lint</text>
  <text x="90" y="237" fill="#d4d4d4" font-family="Space Grotesk, ui-sans-serif, system-ui" font-size="24" font-weight="500">Check sales call notes for missing next...</text>
  <rect x="90" y="288" width="262" height="46" rx="23" fill="#525252" opacity=".20"/>
  <text x="118" y="319" fill="#fafafa" font-family="Space Grotesk, ui-sans-serif, system-ui" font-size="18" font-weight="800" letter-spacing="1">SALES OPERATIONS</text>

  <path d="M780 242c62-108 143-151 244-129 44 10 79 32 108 66" fill="none" stroke="#525252" stroke-width="16" stroke-linecap="round"/>
  <path d="M793 191c77-49 158-55 242-18" fill="none" stroke="#a3e635" stroke-width="10" stroke-linecap="round" opacity=".8"/>
  <circle cx="1049" cy="142" r="18" fill="#fafafa" opacity=".85"/>
</svg>
